<svg width="24" height="25" viewBox="0 0 24 25" fill="none" xmlns="http://www.w3.org/2000/svg">
<path d="M17.75 3.5C18.612 3.5 19.4386 3.84241 20.0481 4.4519C20.6576 5.0614 21 5.88805 21 6.75V18.25C21 19.112 20.6576 19.9386 20.0481 20.5481C19.4386 21.1576 18.612 21.5 17.75 21.5H6.25C5.38805 21.5 4.5614 21.1576 3.9519 20.5481C3.34241 19.9386 3 19.112 3 18.25V6.75C3 5.88805 3.34241 5.0614 3.9519 4.4519C4.5614 3.84241 5.38805 3.5 6.25 3.5H17.75ZM19.5 9H4.5V18.25C4.5 19.216 5.284 20 6.25 20H17.75C18.2141 20 18.6592 19.8156 18.9874 19.4874C19.3156 19.1592 19.5 18.7141 19.5 18.25V9ZM7.75 15C8.08152 15 8.39946 15.1317 8.63388 15.3661C8.8683 15.6005 9 15.9185 9 16.25C9 16.5815 8.8683 16.8995 8.63388 17.1339C8.39946 17.3683 8.08152 17.5 7.75 17.5C7.41848 17.5 7.10054 17.3683 6.86612 17.1339C6.6317 16.8995 6.5 16.5815 6.5 16.25C6.5 15.9185 6.6317 15.6005 6.86612 15.3661C7.10054 15.1317 7.41848 15 7.75 15ZM12 15C12.3315 15 12.6495 15.1317 12.8839 15.3661C13.1183 15.6005 13.25 15.9185 13.25 16.25C13.25 16.5815 13.1183 16.8995 12.8839 17.1339C12.6495 17.3683 12.3315 17.5 12 17.5C11.6685 17.5 11.3505 17.3683 11.1161 17.1339C10.8817 16.8995 10.75 16.5815 10.75 16.25C10.75 15.9185 10.8817 15.6005 11.1161 15.3661C11.3505 15.1317 11.6685 15 12 15ZM7.75 11C8.08152 11 8.39946 11.1317 8.63388 11.3661C8.8683 11.6005 9 11.9185 9 12.25C9 12.5815 8.8683 12.8995 8.63388 13.1339C8.39946 13.3683 8.08152 13.5 7.75 13.5C7.41848 13.5 7.10054 13.3683 6.86612 13.1339C6.6317 12.8995 6.5 12.5815 6.5 12.25C6.5 11.9185 6.6317 11.6005 6.86612 11.3661C7.10054 11.1317 7.41848 11 7.75 11ZM12 11C12.3315 11 12.6495 11.1317 12.8839 11.3661C13.1183 11.6005 13.25 11.9185 13.25 12.25C13.25 12.5815 13.1183 12.8995 12.8839 13.1339C12.6495 13.3683 12.3315 13.5 12 13.5C11.6685 13.5 11.3505 13.3683 11.1161 13.1339C10.8817 12.8995 10.75 12.5815 10.75 12.25C10.75 11.9185 10.8817 11.6005 11.1161 11.3661C11.3505 11.1317 11.6685 11 12 11ZM16.25 11C16.5815 11 16.8995 11.1317 17.1339 11.3661C17.3683 11.6005 17.5 11.9185 17.5 12.25C17.5 12.5815 17.3683 12.8995 17.1339 13.1339C16.8995 13.3683 16.5815 13.5 16.25 13.5C15.9185 13.5 15.6005 13.3683 15.3661 13.1339C15.1317 12.8995 15 12.5815 15 12.25C15 11.9185 15.1317 11.6005 15.3661 11.3661C15.6005 11.1317 15.9185 11 16.25 11ZM17.75 5H6.25C5.78587 5 5.34075 5.18437 5.01256 5.51256C4.68437 5.84075 4.5 6.28587 4.5 6.75V7.5H19.5V6.75C19.5 6.28587 19.3156 5.84075 18.9874 5.51256C18.6592 5.18437 18.2141 5 17.75 5Z" fill="#828282"/>
</svg>
